# xmcd
#
# Track frame offsets:
#	150
#	16111
#	31187
#	46411
#	61711
#	79001
#	96412
#	111720
#	126830
#	146852
#
# Disc length: 2213 seconds
#
# Revision: 0
# Processed by: cddbd v1.5.2PL0 Copyright (c) Steve Scherf et al.
# Submitted via: audiograbber 1.83.01
#
DISCID=8508a30a
DTITLE=Barry Scott - Why Did I Do Whatever I Did?
DYEAR=2008
DGENRE=
TTITLE0=Last Night
TTITLE1=Tell Me, Linda
TTITLE2=Why Did I Do Whatever I Did?
TTITLE3=The Trouble With Love
TTITLE4=How I'm Remembering You
TTITLE5=A Message To Me
TTITLE6=Please Stay (Gone Away)
TTITLE7=A Woman Has The Power
TTITLE8=She Likes The Mirror
TTITLE9=The Memory Of Her
EXTD=
EXTT0=
EXTT1=
EXTT2=
EXTT3=
EXTT4=
EXTT5=
EXTT6=
EXTT7=
EXTT8=
EXTT9=
PLAYORDER=
